<svg width="220" height="28" viewBox="0 0 220 28" fill="none" xmlns="http://www.w3.org/2000/svg">
<path d="M50.0703 10.6016C50.0078 9.97135 49.7396 9.48177 49.2656 9.13281C48.7917 8.78385 48.1484 8.60937 47.3359 8.60937C46.7839 8.60937 46.3177 8.6875 45.9375 8.84375C45.5573 8.99479 45.2656 9.20573 45.0625 9.47656C44.8646 9.7474 44.7656 10.0547 44.7656 10.3984C44.7552 10.6849 44.8151 10.9349 44.9453 11.1484C45.0807 11.362 45.2656 11.5469 45.5 11.7031C45.7344 11.8542 46.0052 11.987 46.3125 12.1016C46.6198 12.2109 46.9479 12.3047 47.2969 12.3828L48.7344 12.7266C49.4323 12.8828 50.0729 13.0911 50.6562 13.3516C51.2396 13.612 51.7448 13.9323 52.1719 14.3125C52.599 14.6927 52.9297 15.1406 53.1641 15.6562C53.4036 16.1719 53.526 16.763 53.5312 17.4297C53.526 18.4089 53.276 19.2578 52.7813 19.9766C52.2917 20.6901 51.5833 21.2448 50.6562 21.6406C49.7344 22.0312 48.6224 22.2266 47.3203 22.2266C46.0286 22.2266 44.9036 22.0286 43.9453 21.6328C42.9922 21.237 42.2474 20.651 41.7109 19.875C41.1797 19.0937 40.901 18.1276 40.875 16.9766H44.1484C44.1849 17.513 44.3385 17.9609 44.6094 18.3203C44.8854 18.6745 45.2526 18.9427 45.7109 19.125C46.1745 19.3021 46.6979 19.3906 47.2812 19.3906C47.8542 19.3906 48.3516 19.3073 48.7734 19.1406C49.2005 18.974 49.5313 18.7422 49.7656 18.4453C50 18.1484 50.1172 17.8073 50.1172 17.4219C50.1172 17.0625 50.0104 16.7604 49.7969 16.5156C49.5885 16.2708 49.2813 16.0625 48.875 15.8906C48.474 15.7187 47.9818 15.5625 47.3984 15.4219L45.6563 14.9844C44.3073 14.6562 43.2422 14.1432 42.4609 13.4453C41.6797 12.7474 41.2917 11.8073 41.2969 10.625C41.2917 9.65625 41.5495 8.8099 42.0703 8.08594C42.5964 7.36198 43.3177 6.79687 44.2344 6.39062C45.151 5.98437 46.1927 5.78125 47.3594 5.78125C48.5469 5.78125 49.5833 5.98437 50.4688 6.39062C51.3594 6.79687 52.0521 7.36198 52.5469 8.08594C53.0417 8.8099 53.2969 9.64844 53.3125 10.6016H50.0703ZM62.327 10V12.5H55.1004V10H62.327ZM56.741 7.125H60.0691V18.3125C60.0691 18.6198 60.116 18.8594 60.2098 19.0312C60.3035 19.1979 60.4337 19.3151 60.6004 19.3828C60.7723 19.4505 60.9702 19.4844 61.1941 19.4844C61.3504 19.4844 61.5066 19.4714 61.6629 19.4453C61.8191 19.4141 61.9389 19.3906 62.0223 19.375L62.5457 21.8516C62.379 21.9036 62.1447 21.9635 61.8426 22.0313C61.5405 22.1042 61.1733 22.1484 60.741 22.1641C59.9389 22.1953 59.2358 22.0885 58.6316 21.8437C58.0327 21.599 57.5665 21.2187 57.2332 20.7031C56.8999 20.1875 56.7358 19.5365 56.741 18.75V7.125ZM69.9879 22.2344C68.7743 22.2344 67.7249 21.9766 66.8395 21.4609C65.9592 20.9401 65.2796 20.2161 64.8004 19.2891C64.3212 18.3568 64.0816 17.276 64.0816 16.0469C64.0816 14.8073 64.3212 13.724 64.8004 12.7969C65.2796 11.8646 65.9592 11.1406 66.8395 10.625C67.7249 10.1042 68.7743 9.84375 69.9879 9.84375C71.2014 9.84375 72.2483 10.1042 73.1285 10.625C74.0139 11.1406 74.6962 11.8646 75.1754 12.7969C75.6546 13.724 75.8941 14.8073 75.8941 16.0469C75.8941 17.276 75.6546 18.3568 75.1754 19.2891C74.6962 20.2161 74.0139 20.9401 73.1285 21.4609C72.2483 21.9766 71.2014 22.2344 69.9879 22.2344ZM70.0035 19.6562C70.5556 19.6562 71.0165 19.5 71.3863 19.1875C71.7561 18.8698 72.0348 18.4375 72.2223 17.8906C72.415 17.3437 72.5113 16.7214 72.5113 16.0234C72.5113 15.3255 72.415 14.7031 72.2223 14.1562C72.0348 13.6094 71.7561 13.1771 71.3863 12.8594C71.0165 12.5417 70.5556 12.3828 70.0035 12.3828C69.4462 12.3828 68.9775 12.5417 68.5973 12.8594C68.2223 13.1771 67.9384 13.6094 67.7457 14.1562C67.5582 14.7031 67.4645 15.3255 67.4645 16.0234C67.4645 16.7214 67.5582 17.3437 67.7457 17.8906C67.9384 18.4375 68.2223 18.8698 68.5973 19.1875C68.9775 19.5 69.4462 19.6562 70.0035 19.6562ZM78.2582 22V10H81.4848V12.0937H81.6098C81.8285 11.349 82.1957 10.7865 82.7113 10.4063C83.227 10.0208 83.8207 9.82812 84.4926 9.82812C84.6592 9.82812 84.8389 9.83854 85.0316 9.85937C85.2243 9.88021 85.3936 9.90885 85.5395 9.94531V12.8984C85.3832 12.8516 85.1671 12.8099 84.891 12.7734C84.615 12.737 84.3624 12.7188 84.1332 12.7188C83.6436 12.7188 83.2061 12.8255 82.8207 13.0391C82.4405 13.2474 82.1384 13.5391 81.9145 13.9141C81.6957 14.2891 81.5863 14.7214 81.5863 15.2109V22H78.2582ZM90.5383 22.2266C89.7727 22.2266 89.0904 22.0938 88.4914 21.8281C87.8924 21.5573 87.4185 21.1589 87.0695 20.6328C86.7258 20.1016 86.5539 19.4401 86.5539 18.6484C86.5539 17.9818 86.6763 17.4219 86.9211 16.9687C87.1659 16.5156 87.4992 16.151 87.9211 15.875C88.343 15.599 88.8221 15.3906 89.3586 15.25C89.9003 15.1094 90.468 15.0104 91.0617 14.9531C91.7596 14.8802 92.3221 14.8125 92.7492 14.75C93.1763 14.6823 93.4862 14.5833 93.6789 14.4531C93.8716 14.3229 93.968 14.1302 93.968 13.875V13.8281C93.968 13.3333 93.8117 12.9505 93.4992 12.6797C93.1919 12.4089 92.7544 12.2734 92.1867 12.2734C91.5878 12.2734 91.1112 12.4062 90.757 12.6719C90.4029 12.9323 90.1685 13.2604 90.0539 13.6562L86.9758 13.4062C87.132 12.6771 87.4393 12.0469 87.8977 11.5156C88.356 10.9792 88.9471 10.5677 89.6711 10.2812C90.4003 9.98958 91.244 9.84375 92.2023 9.84375C92.869 9.84375 93.507 9.92187 94.1164 10.0781C94.731 10.2344 95.2753 10.4766 95.7492 10.8047C96.2284 11.1328 96.606 11.5547 96.882 12.0703C97.1581 12.5807 97.2961 13.1927 97.2961 13.9062V22H94.1398V20.3359H94.0461C93.8534 20.7109 93.5956 21.0417 93.2727 21.3281C92.9497 21.6094 92.5617 21.8307 92.1086 21.9922C91.6555 22.1484 91.132 22.2266 90.5383 22.2266ZM91.4914 19.9297C91.981 19.9297 92.4133 19.8333 92.7883 19.6406C93.1633 19.4427 93.4576 19.1771 93.6711 18.8438C93.8846 18.5104 93.9914 18.1328 93.9914 17.7109V16.4375C93.8872 16.5052 93.744 16.5677 93.5617 16.625C93.3846 16.6771 93.1841 16.7266 92.9602 16.7734C92.7362 16.8151 92.5122 16.8542 92.2883 16.8906C92.0643 16.9219 91.8612 16.9505 91.6789 16.9766C91.2883 17.0339 90.9471 17.125 90.6555 17.25C90.3638 17.375 90.1372 17.5443 89.9758 17.7578C89.8143 17.9661 89.7336 18.2266 89.7336 18.5391C89.7336 18.9922 89.8977 19.3385 90.2258 19.5781C90.5591 19.8125 90.981 19.9297 91.4914 19.9297ZM105.484 26.75C104.406 26.75 103.482 26.6016 102.711 26.3047C101.945 26.013 101.336 25.6146 100.883 25.1094C100.43 24.6042 100.135 24.0365 100 23.4062L103.078 22.9922C103.172 23.2318 103.32 23.4557 103.523 23.6641C103.727 23.8724 103.995 24.0391 104.328 24.1641C104.667 24.2943 105.078 24.3594 105.563 24.3594C106.286 24.3594 106.883 24.1823 107.352 23.8281C107.826 23.4792 108.063 22.8932 108.063 22.0703V19.875H107.922C107.776 20.2083 107.557 20.5234 107.266 20.8203C106.974 21.1172 106.599 21.3594 106.141 21.5469C105.682 21.7344 105.135 21.8281 104.5 21.8281C103.599 21.8281 102.779 21.6198 102.039 21.2031C101.305 20.7812 100.719 20.138 100.281 19.2734C99.849 18.4036 99.6328 17.3047 99.6328 15.9766C99.6328 14.6172 99.8542 13.4818 100.297 12.5703C100.74 11.6589 101.328 10.9766 102.063 10.5234C102.802 10.0703 103.612 9.84375 104.492 9.84375C105.164 9.84375 105.727 9.95833 106.18 10.1875C106.633 10.4115 106.997 10.6927 107.273 11.0312C107.555 11.3646 107.771 11.6927 107.922 12.0156H108.047V10H111.352V22.1172C111.352 23.138 111.102 23.9922 110.602 24.6797C110.102 25.3672 109.409 25.8828 108.523 26.2266C107.643 26.5755 106.63 26.75 105.484 26.75ZM105.555 19.3281C106.091 19.3281 106.544 19.1953 106.914 18.9297C107.289 18.6589 107.576 18.2734 107.773 17.7734C107.977 17.2682 108.078 16.6641 108.078 15.9609C108.078 15.2578 107.979 14.6484 107.781 14.1328C107.583 13.612 107.297 13.2083 106.922 12.9219C106.547 12.6354 106.091 12.4922 105.555 12.4922C105.008 12.4922 104.547 12.6406 104.172 12.9375C103.797 13.2292 103.513 13.6354 103.32 14.1562C103.128 14.6771 103.031 15.2786 103.031 15.9609C103.031 16.6536 103.128 17.2526 103.32 17.7578C103.518 18.2578 103.802 18.6458 104.172 18.9219C104.547 19.1927 105.008 19.3281 105.555 19.3281ZM119.669 22.2344C118.434 22.2344 117.372 21.9844 116.481 21.4844C115.596 20.9792 114.914 20.2656 114.434 19.3437C113.955 18.4167 113.716 17.3203 113.716 16.0547C113.716 14.8203 113.955 13.737 114.434 12.8047C114.914 11.8724 115.588 11.1458 116.458 10.625C117.333 10.1042 118.359 9.84375 119.536 9.84375C120.328 9.84375 121.065 9.97135 121.747 10.2266C122.434 10.4766 123.033 10.8542 123.544 11.3594C124.059 11.8646 124.46 12.5 124.747 13.2656C125.033 14.026 125.177 14.9167 125.177 15.9375V16.8516H115.044V14.7891H122.044C122.044 14.3099 121.94 13.8854 121.731 13.5156C121.523 13.1458 121.234 12.8568 120.864 12.6484C120.499 12.4349 120.075 12.3281 119.591 12.3281C119.085 12.3281 118.637 12.4453 118.247 12.6797C117.861 12.9089 117.559 13.2187 117.341 13.6094C117.122 13.9948 117.01 14.4245 117.005 14.8984V16.8594C117.005 17.4531 117.114 17.9661 117.333 18.3984C117.557 18.8307 117.872 19.1641 118.278 19.3984C118.684 19.6328 119.166 19.75 119.723 19.75C120.093 19.75 120.432 19.6979 120.739 19.5938C121.046 19.4896 121.309 19.3333 121.528 19.125C121.747 18.9167 121.914 18.6615 122.028 18.3594L125.106 18.5625C124.95 19.3021 124.63 19.9479 124.145 20.5C123.666 21.0469 123.046 21.474 122.286 21.7813C121.531 22.0833 120.658 22.2344 119.669 22.2344ZM141.728 11.6016H138.306C138.244 11.1589 138.116 10.7656 137.923 10.4219C137.731 10.0729 137.483 9.77604 137.181 9.53125C136.879 9.28646 136.53 9.09896 136.134 8.96875C135.744 8.83854 135.319 8.77344 134.861 8.77344C134.033 8.77344 133.311 8.97917 132.697 9.39062C132.082 9.79687 131.606 10.3906 131.267 11.1719C130.929 11.9479 130.759 12.8906 130.759 14C130.759 15.1406 130.929 16.099 131.267 16.875C131.611 17.651 132.09 18.237 132.705 18.6328C133.319 19.0286 134.03 19.2266 134.838 19.2266C135.291 19.2266 135.71 19.1667 136.095 19.0469C136.486 18.9271 136.832 18.7526 137.134 18.5234C137.436 18.2891 137.686 18.0052 137.884 17.6719C138.088 17.3385 138.228 16.9583 138.306 16.5312L141.728 16.5469C141.64 17.2812 141.418 17.9896 141.064 18.6719C140.715 19.349 140.244 19.9557 139.65 20.4922C139.061 21.0234 138.358 21.4453 137.541 21.7578C136.728 22.0651 135.809 22.2187 134.783 22.2187C133.356 22.2187 132.08 21.8958 130.955 21.25C129.835 20.6042 128.949 19.6693 128.298 18.4453C127.653 17.2214 127.33 15.7396 127.33 14C127.33 12.2552 127.658 10.7708 128.314 9.54688C128.97 8.32292 129.861 7.39062 130.986 6.75C132.111 6.10417 133.377 5.78125 134.783 5.78125C135.71 5.78125 136.569 5.91146 137.361 6.17187C138.158 6.43229 138.864 6.8125 139.478 7.3125C140.093 7.80729 140.593 8.41406 140.978 9.13281C141.369 9.85156 141.619 10.6745 141.728 11.6016ZM149.713 22.2344C148.5 22.2344 147.45 21.9766 146.565 21.4609C145.685 20.9401 145.005 20.2161 144.526 19.2891C144.047 18.3568 143.807 17.276 143.807 16.0469C143.807 14.8073 144.047 13.724 144.526 12.7969C145.005 11.8646 145.685 11.1406 146.565 10.625C147.45 10.1042 148.5 9.84375 149.713 9.84375C150.927 9.84375 151.974 10.1042 152.854 10.625C153.739 11.1406 154.422 11.8646 154.901 12.7969C155.38 13.724 155.62 14.8073 155.62 16.0469C155.62 17.276 155.38 18.3568 154.901 19.2891C154.422 20.2161 153.739 20.9401 152.854 21.4609C151.974 21.9766 150.927 22.2344 149.713 22.2344ZM149.729 19.6562C150.281 19.6562 150.742 19.5 151.112 19.1875C151.482 18.8698 151.76 18.4375 151.948 17.8906C152.14 17.3437 152.237 16.7214 152.237 16.0234C152.237 15.3255 152.14 14.7031 151.948 14.1562C151.76 13.6094 151.482 13.1771 151.112 12.8594C150.742 12.5417 150.281 12.3828 149.729 12.3828C149.172 12.3828 148.703 12.5417 148.323 12.8594C147.948 13.1771 147.664 13.6094 147.471 14.1562C147.284 14.7031 147.19 15.3255 147.19 16.0234C147.19 16.7214 147.284 17.3437 147.471 17.8906C147.664 18.4375 147.948 18.8698 148.323 19.1875C148.703 19.5 149.172 19.6562 149.729 19.6562ZM161.312 15.0625V22H157.984V10H161.155V12.1172H161.296C161.562 11.4193 162.007 10.8672 162.632 10.4609C163.257 10.0495 164.015 9.84375 164.905 9.84375C165.739 9.84375 166.465 10.026 167.085 10.3906C167.705 10.7552 168.187 11.276 168.53 11.9531C168.874 12.625 169.046 13.4271 169.046 14.3594V22H165.718V14.9531C165.723 14.2187 165.536 13.6458 165.155 13.2344C164.775 12.8177 164.252 12.6094 163.585 12.6094C163.137 12.6094 162.741 12.7057 162.398 12.8984C162.059 13.0911 161.793 13.3724 161.601 13.7422C161.413 14.1068 161.317 14.5469 161.312 15.0625ZM175.197 15.0625V22H171.869V10H175.041V12.1172H175.182C175.447 11.4193 175.893 10.8672 176.518 10.4609C177.143 10.0495 177.9 9.84375 178.791 9.84375C179.624 9.84375 180.351 10.026 180.971 10.3906C181.59 10.7552 182.072 11.276 182.416 11.9531C182.76 12.625 182.932 13.4271 182.932 14.3594V22H179.604V14.9531C179.609 14.2187 179.421 13.6458 179.041 13.2344C178.661 12.8177 178.137 12.6094 177.471 12.6094C177.023 12.6094 176.627 12.7057 176.283 12.8984C175.945 13.0911 175.679 13.3724 175.486 13.7422C175.299 14.1068 175.202 14.5469 175.197 15.0625ZM191.223 22.2344C189.989 22.2344 188.927 21.9844 188.036 21.4844C187.151 20.9792 186.468 20.2656 185.989 19.3437C185.51 18.4167 185.27 17.3203 185.27 16.0547C185.27 14.8203 185.51 13.737 185.989 12.8047C186.468 11.8724 187.143 11.1458 188.012 10.625C188.887 10.1042 189.914 9.84375 191.091 9.84375C191.882 9.84375 192.619 9.97135 193.302 10.2266C193.989 10.4766 194.588 10.8542 195.098 11.3594C195.614 11.8646 196.015 12.5 196.302 13.2656C196.588 14.026 196.731 14.9167 196.731 15.9375V16.8516H186.598V14.7891H193.598C193.598 14.3099 193.494 13.8854 193.286 13.5156C193.078 13.1458 192.789 12.8568 192.419 12.6484C192.054 12.4349 191.63 12.3281 191.145 12.3281C190.64 12.3281 190.192 12.4453 189.802 12.6797C189.416 12.9089 189.114 13.2187 188.895 13.6094C188.677 13.9948 188.565 14.4245 188.559 14.8984V16.8594C188.559 17.4531 188.669 17.9661 188.887 18.3984C189.111 18.8307 189.427 19.1641 189.833 19.3984C190.239 19.6328 190.721 19.75 191.278 19.75C191.648 19.75 191.986 19.6979 192.294 19.5938C192.601 19.4896 192.864 19.3333 193.083 19.125C193.302 18.9167 193.468 18.6615 193.583 18.3594L196.661 18.5625C196.505 19.3021 196.184 19.9479 195.7 20.5C195.221 21.0469 194.601 21.474 193.841 21.7813C193.085 22.0833 192.213 22.2344 191.223 22.2344ZM204.525 22.2344C203.296 22.2344 202.239 21.974 201.353 21.4531C200.473 20.9271 199.796 20.1979 199.322 19.2656C198.853 18.3333 198.619 17.2604 198.619 16.0469C198.619 14.8177 198.856 13.7396 199.33 12.8125C199.809 11.8802 200.489 11.1536 201.369 10.6328C202.249 10.1068 203.296 9.84375 204.509 9.84375C205.556 9.84375 206.473 10.0339 207.259 10.4141C208.046 10.7943 208.668 11.3281 209.127 12.0156C209.585 12.7031 209.837 13.5104 209.884 14.4375H206.744C206.655 13.8385 206.421 13.3568 206.041 12.9922C205.666 12.6224 205.173 12.4375 204.564 12.4375C204.048 12.4375 203.598 12.5781 203.212 12.8594C202.832 13.1354 202.535 13.5391 202.322 14.0703C202.108 14.6016 202.002 15.2448 202.002 16C202.002 16.7656 202.106 17.4167 202.314 17.9531C202.528 18.4896 202.827 18.8984 203.212 19.1797C203.598 19.4609 204.048 19.6016 204.564 19.6016C204.944 19.6016 205.285 19.5234 205.587 19.3672C205.895 19.2109 206.147 18.9844 206.345 18.6875C206.548 18.3854 206.681 18.0234 206.744 17.6016H209.884C209.832 18.5182 209.582 19.3255 209.134 20.0234C208.692 20.7161 208.08 21.2578 207.298 21.6484C206.517 22.0391 205.593 22.2344 204.525 22.2344ZM218.598 10V12.5H211.371V10H218.598ZM213.012 7.125H216.34V18.3125C216.34 18.6198 216.387 18.8594 216.481 19.0312C216.575 19.1979 216.705 19.3151 216.871 19.3828C217.043 19.4505 217.241 19.4844 217.465 19.4844C217.621 19.4844 217.778 19.4714 217.934 19.4453C218.09 19.4141 218.21 19.3906 218.293 19.375L218.817 21.8516C218.65 21.9036 218.416 21.9635 218.114 22.0313C217.812 22.1042 217.444 22.1484 217.012 22.1641C216.21 22.1953 215.507 22.0885 214.903 21.8437C214.304 21.599 213.838 21.2187 213.504 20.7031C213.171 20.1875 213.007 19.5365 213.012 18.75V7.125Z" fill="#212121"/>
<path d="M0 1.71875C0 0.769511 0.769511 0 1.71875 0H28.2812C29.2305 0 30 0.769511 30 1.71875C30 2.66799 29.2305 3.4375 28.2812 3.4375H1.71875C0.769511 3.4375 0 2.66799 0 1.71875ZM5.04545 4.8125C3.3886 4.8125 2.04545 6.15565 2.04545 7.8125V24.5C2.04545 26.1569 3.3886 27.5 5.04545 27.5H24.9545C26.6114 27.5 27.9545 26.1569 27.9545 24.5V7.8125C27.9545 6.15565 26.6114 4.8125 24.9545 4.8125H5.04545ZM19.7727 9.96875C19.7727 10.5383 19.311 11 18.7415 11H10.5767C10.0072 11 9.54545 10.5383 9.54545 9.96875C9.54545 9.39921 10.0072 8.9375 10.5767 8.9375H18.7415C19.311 8.9375 19.7727 9.39921 19.7727 9.96875Z" fill="#1849C6"/>
</svg>
